<svg width="49" height="88" viewBox="0 0 49 88" fill="none" xmlns="http://www.w3.org/2000/svg">
<path d="M38.4651 34.7056L38.4719 23.1169L45.7704 15.9028L45.7637 27.4915L38.4651 34.7056Z" fill="black" stroke="black"/>
<path d="M4.952 33.7521L5.38663 35.0447L5.64206 35.8043L6.21204 35.2409L20.0437 21.5694L20.1169 21.497L20.1556 21.4015L21.4978 18.0868L40.6349 0.522349L45.4698 0.525177L45.4638 10.751L34.5585 20.8559L34.3984 21.0042L34.3983 21.2224L34.3896 36.0692L29.4583 41.2072L29.3191 41.3523L29.3191 41.5534L29.3191 44.9045L29.3191 45.1387L29.499 45.2886L33.3404 48.4898L33.3404 62.3301L33.3404 62.5293L33.4774 62.674L45.4152 75.275L46.0459 86.6281L40.7247 86.6281L9.80139 60.646L9.80325 57.4592L9.80338 57.2506L9.65516 57.1037L2.89557 50.4067L2.90412 35.7763L4.952 33.7521Z" fill="black" stroke="black"/>
<path d="M36.1809 60.6599V49.2662L46.9044 59.9897L47.5746 72.7238L36.1809 60.6599Z" fill="black" stroke="black"/>
<path d="M20.1426 73.8859L15.1524 73.9076L0.973264 61.1919L0.603344 52.859L6.23008 58.5015L6.23008 61.8014L6.23008 62.0322L6.40581 62.182L20.1426 73.8859ZM0.0466342 51.5926L0.0466337 51.5926L0.0466336 51.5926L0.0466342 51.5926Z" fill="black" stroke="black"/>
</svg>
