<svg width="38" height="32" viewBox="0 0 38 32" fill="none" xmlns="http://www.w3.org/2000/svg">
<path d="M4.29704 0.687527L3.60952 0H5.15645L7.21903 2.06258V2.40634L8.4222 3.60952L7.5628 4.12516L5.84398 2.40634H5.32833L4.29704 1.37505V0.687527Z" fill="white"/>
<path d="M3.7814 0.859409L3.09387 0.171882L3.43763 4.12516H2.75011L2.92199 6.18774L12.3755 15.8131H13.4068L16.1569 13.2349V12.0317L8.4222 4.12516L7.39091 4.64081L5.32833 2.57823H4.81269L3.7814 1.54694V0.859409Z" fill="white"/>
<path d="M14.4381 17.5319L13.9224 16.5006H14.9537L17.7038 14.0943V12.7192H19.9383L28.8761 3.95328V3.43763L30.9387 1.37505H31.6262V3.09387L28.8761 5.84398V11.3442L28.0167 12.2036L27.5011 13.2349L24.0634 16.6725L23.8916 16.1569L19.9383 20.1102H18.7351L16.1569 17.5319H14.4381Z" fill="white"/>
<path d="M33.1732 1.20317V0.343763H33.6888L35.7514 2.40634V4.29704L33.3451 6.70339L33.1732 7.5628L29.5637 11.1723V5.6721L32.1419 3.09387V1.20317H33.1732Z" fill="white"/>
<path d="M34.892 14.4381L36.9546 12.3755V15.6412L34.892 17.7038V14.4381Z" fill="white"/>
<path d="M37.1265 8.93785H35.7514L30.9387 13.4068L30.5949 14.2662L27.1573 17.7038L26.9854 17.1882L26.2979 17.8757V21.6571L28.0167 23.3759V24.2353L31.2825 27.5011H36.9546V25.2666L34.0326 22.3446L33.0013 20.6258V19.4226L34.3763 18.0476V14.2662L37.1265 11.688V8.93785Z" fill="white"/>
<path d="M27.5011 23.204L25.9541 21.6571V23.8916L29.3918 27.3292H30.7668L27.5011 24.0634V23.204Z" fill="white"/>
<path d="M14.4381 24.751V18.3913H16.1569L18.907 21.3133H20.6258L21.1415 22.3446V27.673L17.5319 31.97H12.7192V26.8135L14.4381 24.751Z" fill="white"/>
<path d="M20.9696 30.4231V28.3605L18.0476 31.97H19.7664L20.9696 30.4231Z" fill="white"/>
<path d="M1.37505 8.93785H0V12.0317L3.09387 15.2975V18.7351L3.95328 19.5945V20.7977L2.75011 21.829V22.6884L0.171882 25.2666V27.5011H6.01586L8.76597 25.0947V24.2353L10.3129 22.1727V18.0476L1.37505 8.93785Z" fill="white"/>
<path d="M2.75011 15.4694L0 12.5474V15.4694L2.57823 18.2195L2.75011 15.4694Z" fill="white"/>
</svg>
